<?xml version="1.0" standalone="no"?>
<!DOCTYPE svg PUBLIC "-//W3C//DTD SVG 20010904//EN"
 "http://www.w3.org/TR/2001/REC-SVG-20010904/DTD/svg10.dtd">
<svg version="1.0" xmlns="http://www.w3.org/2000/svg"
 width="3358.000000pt" height="3358.000000pt" viewBox="0 0 3358.000000 3358.000000"
 preserveAspectRatio="xMidYMid meet">

<g transform="translate(0.000000,3358.000000) scale(0.100000,-0.100000)"
fill="#000000" stroke="none">
<path d="M23210 23884 c-466 -31 -823 -89 -1197 -195 -1474 -418 -2536 -1439
-2857 -2748 -89 -360 -119 -696 -97 -1066 23 -390 85 -685 208 -1000 309 -785
938 -1401 2021 -1979 331 -177 858 -425 1273 -599 752 -316 1427 -639 1860
-889 707 -409 1162 -835 1346 -1261 142 -326 156 -679 42 -1004 -244 -690
-1056 -1188 -2144 -1312 -751 -86 -1519 32 -2131 328 -371 180 -620 352 -893
616 -200 194 -421 474 -531 673 -13 23 -27 42 -32 42 -6 0 -1681 -1193 -1707
-1216 -6 -5 145 -277 219 -394 453 -716 1101 -1291 1895 -1680 733 -359 1560
-551 2480 -576 235 -7 626 7 865 31 1068 107 1998 445 2725 990 780 584 1278
1376 1444 2295 118 653 57 1384 -164 1956 -396 1023 -1298 1818 -2972 2618
-383 184 -637 296 -1288 569 -716 300 -770 324 -1070 472 -919 453 -1266 855
-1266 1464 1 408 165 769 497 1091 556 539 1457 774 2327 605 403 -78 842
-280 1142 -525 264 -215 478 -478 625 -764 32 -62 60 -104 67 -101 34 12 1593
1100 1593 1111 0 22 -107 260 -179 399 -528 1017 -1502 1707 -2756 1954 -331
65 -598 91 -980 95 -170 2 -335 2 -365 0z"/>
<path d="M5430 16855 l0 -7025 1080 0 1080 0 2 4497 3 4496 4410 -4607 4410
-4606 50 2 50 3 0 7030 0 7030 -1087 3 -1088 2 -2 -4493 -3 -4494 -4395 4593
-4395 4593 -57 1 -58 0 0 -7025z"/>
</g>
</svg>
